<svg xmlns="http://www.w3.org/2000/svg" xmlns:xlink="http://www.w3.org/1999/xlink" width="500" zoomAndPan="magnify" viewBox="0 0 375 374.999991" height="500" preserveAspectRatio="xMidYMid meet" version="1.0"><defs><g/><clipPath id="07dffb35e1"><path d="M 104.527344 86.820312 L 171.558594 86.820312 L 171.558594 287.910156 L 104.527344 287.910156 Z M 104.527344 86.820312 " clip-rule="nonzero"/></clipPath><clipPath id="779fdf591e"><path d="M 37.5 153.851562 L 104.527344 153.851562 L 104.527344 220.878906 L 37.5 220.878906 Z M 37.5 153.851562 " clip-rule="nonzero"/></clipPath><clipPath id="090a27f5d4"><path d="M 104.527344 153.851562 L 171.277344 153.851562 L 171.277344 220.601562 L 104.527344 220.601562 Z M 104.527344 153.851562 " clip-rule="nonzero"/></clipPath></defs><rect x="-37.5" width="450" fill="#ffffff" y="-37.499999" height="449.999989" fill-opacity="1"/><rect x="-37.5" width="450" fill="#068a5c" y="-37.499999" height="449.999989" fill-opacity="1"/><g clip-path="url(#07dffb35e1)"><path fill="#ffffff" d="M 104.527344 86.820312 L 171.558594 86.820312 L 171.558594 287.910156 L 104.527344 287.910156 Z M 104.527344 86.820312 " fill-opacity="1" fill-rule="nonzero"/></g><g clip-path="url(#779fdf591e)"><path fill="#ffffff" d="M 37.5 153.851562 L 104.527344 153.851562 L 104.527344 220.878906 L 37.5 220.878906 Z M 37.5 153.851562 " fill-opacity="1" fill-rule="nonzero"/></g><g clip-path="url(#090a27f5d4)"><path fill="#068a5c" d="M 104.535156 153.851562 L 171.269531 153.851562 C 168.996094 153.851562 166.726562 153.964844 164.460938 154.195312 C 162.234375 154.421875 160.027344 154.757812 157.832031 155.207031 C 155.683594 155.644531 153.53125 156.199219 151.4375 156.851562 C 149.367188 157.496094 147.300781 158.25 145.304688 159.097656 C 141.324219 160.78125 137.546875 162.832031 133.964844 165.25 C 130.414062 167.652344 127.121094 170.367188 124.085938 173.402344 C 121.054688 176.433594 118.339844 179.726562 115.9375 183.28125 C 113.519531 186.859375 111.464844 190.640625 109.78125 194.617188 C 108.9375 196.617188 108.179688 198.679688 107.539062 200.75 C 106.886719 202.84375 106.332031 204.996094 105.890625 207.148438 C 105.445312 209.339844 105.105469 211.550781 104.882812 213.777344 C 104.652344 216.042969 104.535156 218.320312 104.535156 220.601562 Z M 104.535156 153.851562 " fill-opacity="1" fill-rule="nonzero"/></g><g fill="#ffffff" fill-opacity="1"><g transform="translate(188.279318, 146.862413)"><g><path d="M 20.96875 0 C 17.15625 0 14.097656 -0.925781 11.796875 -2.78125 C 9.503906 -4.644531 8.359375 -7.945312 8.359375 -12.6875 L 8.359375 -28.53125 L 2.125 -28.53125 L 2.125 -36.375 L 8.359375 -36.375 L 9.453125 -46.125 L 17.75 -46.125 L 17.75 -36.375 L 27.578125 -36.375 L 27.578125 -28.53125 L 17.75 -28.53125 L 17.75 -12.609375 C 17.75 -10.847656 18.125 -9.640625 18.875 -8.984375 C 19.632812 -8.328125 20.945312 -8 22.8125 -8 L 27.34375 -8 L 27.34375 0 Z M 20.96875 0 "/></g></g></g><g fill="#ffffff" fill-opacity="1"><g transform="translate(215.482088, 146.862413)"><g><path d="M 4.765625 0 L 4.765625 -52.796875 L 14.15625 -52.796875 L 14.15625 -30.796875 C 15.375 -32.796875 17.019531 -34.367188 19.09375 -35.515625 C 21.175781 -36.671875 23.5625 -37.25 26.25 -37.25 C 30.75 -37.25 34.234375 -35.832031 36.703125 -33 C 39.171875 -30.164062 40.40625 -26.007812 40.40625 -20.53125 L 40.40625 0 L 31.09375 0 L 31.09375 -19.65625 C 31.09375 -22.78125 30.46875 -25.171875 29.21875 -26.828125 C 27.96875 -28.492188 26 -29.328125 23.3125 -29.328125 C 20.675781 -29.328125 18.488281 -28.398438 16.75 -26.546875 C 15.019531 -24.691406 14.15625 -22.097656 14.15625 -18.765625 L 14.15625 0 Z M 4.765625 0 "/></g></g></g><g fill="#ffffff" fill-opacity="1"><g transform="translate(256.396505, 146.862413)"><g><path d="M 22.4375 0.875 C 18.769531 0.875 15.519531 0.09375 12.6875 -1.46875 C 9.851562 -3.03125 7.628906 -5.226562 6.015625 -8.0625 C 4.398438 -10.894531 3.59375 -14.171875 3.59375 -17.890625 C 3.59375 -21.648438 4.382812 -25 5.96875 -27.9375 C 7.5625 -30.875 9.765625 -33.160156 12.578125 -34.796875 C 15.390625 -36.429688 18.703125 -37.25 22.515625 -37.25 C 26.078125 -37.25 29.226562 -36.46875 31.96875 -34.90625 C 34.707031 -33.34375 36.847656 -31.203125 38.390625 -28.484375 C 39.929688 -25.773438 40.703125 -22.757812 40.703125 -19.4375 C 40.703125 -18.894531 40.6875 -18.328125 40.65625 -17.734375 C 40.632812 -17.148438 40.597656 -16.539062 40.546875 -15.90625 L 12.90625 -15.90625 C 13.101562 -13.070312 14.09375 -10.847656 15.875 -9.234375 C 17.65625 -7.617188 19.816406 -6.8125 22.359375 -6.8125 C 24.265625 -6.8125 25.863281 -7.238281 27.15625 -8.09375 C 28.457031 -8.957031 29.425781 -10.070312 30.0625 -11.4375 L 39.59375 -11.4375 C 38.914062 -9.144531 37.78125 -7.054688 36.1875 -5.171875 C 34.59375 -3.285156 32.632812 -1.804688 30.3125 -0.734375 C 28 0.335938 25.375 0.875 22.4375 0.875 Z M 22.515625 -29.625 C 20.210938 -29.625 18.179688 -28.972656 16.421875 -27.671875 C 14.660156 -26.378906 13.535156 -24.414062 13.046875 -21.78125 L 31.171875 -21.78125 C 31.015625 -24.175781 30.128906 -26.082031 28.515625 -27.5 C 26.910156 -28.914062 24.910156 -29.625 22.515625 -29.625 Z M 22.515625 -29.625 "/></g></g></g><g fill="#ffffff" fill-opacity="1"><g transform="translate(188.279318, 212.112408)"><g><path d="M 21.484375 0.875 C 18.066406 0.875 15.007812 0.046875 12.3125 -1.609375 C 9.625 -3.273438 7.5 -5.550781 5.9375 -8.4375 C 4.375 -11.320312 3.59375 -14.597656 3.59375 -18.265625 C 3.59375 -21.929688 4.375 -25.191406 5.9375 -28.046875 C 7.5 -30.910156 9.625 -33.160156 12.3125 -34.796875 C 15.007812 -36.429688 18.066406 -37.25 21.484375 -37.25 C 24.222656 -37.25 26.617188 -36.734375 28.671875 -35.703125 C 30.722656 -34.679688 32.382812 -33.242188 33.65625 -31.390625 L 33.65625 -52.796875 L 43.046875 -52.796875 L 43.046875 0 L 34.6875 0 L 33.65625 -5.203125 C 32.476562 -3.585938 30.925781 -2.171875 29 -0.953125 C 27.070312 0.265625 24.566406 0.875 21.484375 0.875 Z M 23.46875 -7.328125 C 26.5 -7.328125 28.976562 -8.34375 30.90625 -10.375 C 32.832031 -12.40625 33.796875 -15.007812 33.796875 -18.1875 C 33.796875 -21.363281 32.832031 -23.960938 30.90625 -25.984375 C 28.976562 -28.015625 26.5 -29.03125 23.46875 -29.03125 C 20.476562 -29.03125 18.003906 -28.03125 16.046875 -26.03125 C 14.097656 -24.03125 13.125 -21.441406 13.125 -18.265625 C 13.125 -15.085938 14.097656 -12.46875 16.046875 -10.40625 C 18.003906 -8.351562 20.476562 -7.328125 23.46875 -7.328125 Z M 23.46875 -7.328125 "/></g></g></g><g fill="#ffffff" fill-opacity="1"><g transform="translate(232.419995, 212.112408)"><g><path d="M 22.21875 0.875 C 18.695312 0.875 15.53125 0.0703125 12.71875 -1.53125 C 9.90625 -3.144531 7.679688 -5.382812 6.046875 -8.25 C 4.410156 -11.113281 3.59375 -14.425781 3.59375 -18.1875 C 3.59375 -21.945312 4.421875 -25.253906 6.078125 -28.109375 C 7.742188 -30.972656 9.984375 -33.210938 12.796875 -34.828125 C 15.609375 -36.441406 18.773438 -37.25 22.296875 -37.25 C 25.765625 -37.25 28.90625 -36.441406 31.71875 -34.828125 C 34.53125 -33.210938 36.753906 -30.972656 38.390625 -28.109375 C 40.023438 -25.253906 40.84375 -21.945312 40.84375 -18.1875 C 40.84375 -14.425781 40.023438 -11.113281 38.390625 -8.25 C 36.753906 -5.382812 34.515625 -3.144531 31.671875 -1.53125 C 28.835938 0.0703125 25.6875 0.875 22.21875 0.875 Z M 22.21875 -7.265625 C 24.664062 -7.265625 26.789062 -8.179688 28.59375 -10.015625 C 30.40625 -11.847656 31.3125 -14.570312 31.3125 -18.1875 C 31.3125 -21.800781 30.40625 -24.523438 28.59375 -26.359375 C 26.789062 -28.191406 24.691406 -29.109375 22.296875 -29.109375 C 19.796875 -29.109375 17.65625 -28.191406 15.875 -26.359375 C 14.09375 -24.523438 13.203125 -21.800781 13.203125 -18.1875 C 13.203125 -14.570312 14.09375 -11.847656 15.875 -10.015625 C 17.65625 -8.179688 19.769531 -7.265625 22.21875 -7.265625 Z M 22.21875 -7.265625 "/></g></g></g><g fill="#ffffff" fill-opacity="1"><g transform="translate(273.187756, 212.112408)"><g><path d="M 22.578125 0.875 C 18.867188 0.875 15.59375 0.0703125 12.75 -1.53125 C 9.914062 -3.144531 7.679688 -5.394531 6.046875 -8.28125 C 4.410156 -11.164062 3.59375 -14.46875 3.59375 -18.1875 C 3.59375 -21.90625 4.410156 -25.203125 6.046875 -28.078125 C 7.679688 -30.960938 9.914062 -33.210938 12.75 -34.828125 C 15.59375 -36.441406 18.867188 -37.25 22.578125 -37.25 C 27.222656 -37.25 31.132812 -36.035156 34.3125 -33.609375 C 37.488281 -31.191406 39.519531 -27.859375 40.40625 -23.609375 L 30.5 -23.609375 C 30.007812 -25.367188 29.039062 -26.75 27.59375 -27.75 C 26.15625 -28.757812 24.460938 -29.265625 22.515625 -29.265625 C 19.921875 -29.265625 17.71875 -28.285156 15.90625 -26.328125 C 14.101562 -24.367188 13.203125 -21.65625 13.203125 -18.1875 C 13.203125 -14.71875 14.101562 -12.003906 15.90625 -10.046875 C 17.71875 -8.085938 19.921875 -7.109375 22.515625 -7.109375 C 24.460938 -7.109375 26.15625 -7.597656 27.59375 -8.578125 C 29.039062 -9.554688 30.007812 -10.953125 30.5 -12.765625 L 40.40625 -12.765625 C 39.519531 -8.648438 37.488281 -5.347656 34.3125 -2.859375 C 31.132812 -0.367188 27.222656 0.875 22.578125 0.875 Z M 22.578125 0.875 "/></g></g></g><g fill="#ffffff" fill-opacity="1"><g transform="translate(188.279318, 277.362404)"><g><path d="M 8.796875 0.515625 C 7.085938 0.515625 5.679688 -0.0195312 4.578125 -1.09375 C 3.484375 -2.175781 2.9375 -3.472656 2.9375 -4.984375 C 2.9375 -6.546875 3.484375 -7.863281 4.578125 -8.9375 C 5.679688 -10.019531 7.085938 -10.5625 8.796875 -10.5625 C 10.503906 -10.5625 11.910156 -10.019531 13.015625 -8.9375 C 14.117188 -7.863281 14.671875 -6.546875 14.671875 -4.984375 C 14.671875 -3.472656 14.117188 -2.175781 13.015625 -1.09375 C 11.910156 -0.0195312 10.503906 0.515625 8.796875 0.515625 Z M 8.796875 0.515625 "/></g></g></g><g fill="#ffffff" fill-opacity="1"><g transform="translate(202.210399, 277.362404)"><g><path d="M 22.578125 0.875 C 18.867188 0.875 15.59375 0.0703125 12.75 -1.53125 C 9.914062 -3.144531 7.679688 -5.394531 6.046875 -8.28125 C 4.410156 -11.164062 3.59375 -14.46875 3.59375 -18.1875 C 3.59375 -21.90625 4.410156 -25.203125 6.046875 -28.078125 C 7.679688 -30.960938 9.914062 -33.210938 12.75 -34.828125 C 15.59375 -36.441406 18.867188 -37.25 22.578125 -37.25 C 27.222656 -37.25 31.132812 -36.035156 34.3125 -33.609375 C 37.488281 -31.191406 39.519531 -27.859375 40.40625 -23.609375 L 30.5 -23.609375 C 30.007812 -25.367188 29.039062 -26.75 27.59375 -27.75 C 26.15625 -28.757812 24.460938 -29.265625 22.515625 -29.265625 C 19.921875 -29.265625 17.71875 -28.285156 15.90625 -26.328125 C 14.101562 -24.367188 13.203125 -21.65625 13.203125 -18.1875 C 13.203125 -14.71875 14.101562 -12.003906 15.90625 -10.046875 C 17.71875 -8.085938 19.921875 -7.109375 22.515625 -7.109375 C 24.460938 -7.109375 26.15625 -7.597656 27.59375 -8.578125 C 29.039062 -9.554688 30.007812 -10.953125 30.5 -12.765625 L 40.40625 -12.765625 C 39.519531 -8.648438 37.488281 -5.347656 34.3125 -2.859375 C 31.132812 -0.367188 27.222656 0.875 22.578125 0.875 Z M 22.578125 0.875 "/></g></g></g><g fill="#ffffff" fill-opacity="1"><g transform="translate(242.538214, 277.362404)"><g><path d="M 17.3125 0.875 C 14.175781 0.875 11.601562 0.375 9.59375 -0.625 C 7.59375 -1.625 6.101562 -2.953125 5.125 -4.609375 C 4.15625 -6.273438 3.671875 -8.113281 3.671875 -10.125 C 3.671875 -13.488281 4.988281 -16.222656 7.625 -18.328125 C 10.257812 -20.429688 14.21875 -21.484375 19.5 -21.484375 L 28.75 -21.484375 L 28.75 -22.359375 C 28.75 -24.859375 28.035156 -26.691406 26.609375 -27.859375 C 25.191406 -29.035156 23.4375 -29.625 21.34375 -29.625 C 19.4375 -29.625 17.769531 -29.171875 16.34375 -28.265625 C 14.925781 -27.359375 14.050781 -26.023438 13.71875 -24.265625 L 4.546875 -24.265625 C 4.785156 -26.910156 5.675781 -29.207031 7.21875 -31.15625 C 8.757812 -33.113281 10.75 -34.617188 13.1875 -35.671875 C 15.632812 -36.722656 18.375 -37.25 21.40625 -37.25 C 26.59375 -37.25 30.675781 -35.953125 33.65625 -33.359375 C 36.632812 -30.773438 38.125 -27.109375 38.125 -22.359375 L 38.125 0 L 30.140625 0 L 29.265625 -5.859375 C 28.179688 -3.910156 26.675781 -2.300781 24.75 -1.03125 C 22.820312 0.238281 20.34375 0.875 17.3125 0.875 Z M 19.4375 -6.453125 C 22.125 -6.453125 24.210938 -7.332031 25.703125 -9.09375 C 27.191406 -10.851562 28.132812 -13.03125 28.53125 -15.625 L 20.53125 -15.625 C 18.039062 -15.625 16.253906 -15.171875 15.171875 -14.265625 C 14.097656 -13.359375 13.5625 -12.242188 13.5625 -10.921875 C 13.5625 -9.503906 14.097656 -8.40625 15.171875 -7.625 C 16.253906 -6.84375 17.675781 -6.453125 19.4375 -6.453125 Z M 19.4375 -6.453125 "/></g></g></g><g fill="#ffffff" fill-opacity="1"><g transform="translate(281.179571, 277.362404)"><g><path d="M 4.765625 0 L 4.765625 -36.375 L 13.125 -36.375 L 14 -29.546875 C 15.320312 -31.898438 17.117188 -33.769531 19.390625 -35.15625 C 21.671875 -36.550781 24.347656 -37.25 27.421875 -37.25 L 27.421875 -27.34375 L 24.78125 -27.34375 C 22.726562 -27.34375 20.894531 -27.023438 19.28125 -26.390625 C 17.664062 -25.753906 16.40625 -24.65625 15.5 -23.09375 C 14.601562 -21.53125 14.15625 -19.359375 14.15625 -16.578125 L 14.15625 0 Z M 4.765625 0 "/></g></g></g><g fill="#ffffff" fill-opacity="1"><g transform="translate(306.549238, 277.362404)"><g><path d="M 22.4375 0.875 C 18.769531 0.875 15.519531 0.09375 12.6875 -1.46875 C 9.851562 -3.03125 7.628906 -5.226562 6.015625 -8.0625 C 4.398438 -10.894531 3.59375 -14.171875 3.59375 -17.890625 C 3.59375 -21.648438 4.382812 -25 5.96875 -27.9375 C 7.5625 -30.875 9.765625 -33.160156 12.578125 -34.796875 C 15.390625 -36.429688 18.703125 -37.25 22.515625 -37.25 C 26.078125 -37.25 29.226562 -36.46875 31.96875 -34.90625 C 34.707031 -33.34375 36.847656 -31.203125 38.390625 -28.484375 C 39.929688 -25.773438 40.703125 -22.757812 40.703125 -19.4375 C 40.703125 -18.894531 40.6875 -18.328125 40.65625 -17.734375 C 40.632812 -17.148438 40.597656 -16.539062 40.546875 -15.90625 L 12.90625 -15.90625 C 13.101562 -13.070312 14.09375 -10.847656 15.875 -9.234375 C 17.65625 -7.617188 19.816406 -6.8125 22.359375 -6.8125 C 24.265625 -6.8125 25.863281 -7.238281 27.15625 -8.09375 C 28.457031 -8.957031 29.425781 -10.070312 30.0625 -11.4375 L 39.59375 -11.4375 C 38.914062 -9.144531 37.78125 -7.054688 36.1875 -5.171875 C 34.59375 -3.285156 32.632812 -1.804688 30.3125 -0.734375 C 28 0.335938 25.375 0.875 22.4375 0.875 Z M 22.515625 -29.625 C 20.210938 -29.625 18.179688 -28.972656 16.421875 -27.671875 C 14.660156 -26.378906 13.535156 -24.414062 13.046875 -21.78125 L 31.171875 -21.78125 C 31.015625 -24.175781 30.128906 -26.082031 28.515625 -27.5 C 26.910156 -28.914062 24.910156 -29.625 22.515625 -29.625 Z M 22.515625 -29.625 "/></g></g></g></svg>