<?xml version="1.0" encoding="UTF-8" standalone="no"?>
<!-- Created with Inkscape (http://www.inkscape.org/) -->

<svg
   xmlns:dc="http://purl.org/dc/elements/1.1/"
   xmlns:cc="http://creativecommons.org/ns#"
   xmlns:rdf="http://www.w3.org/1999/02/22-rdf-syntax-ns#"
   xmlns:svg="http://www.w3.org/2000/svg"
   xmlns="http://www.w3.org/2000/svg"
   xmlns:sodipodi="http://sodipodi.sourceforge.net/DTD/sodipodi-0.dtd"
   xmlns:inkscape="http://www.inkscape.org/namespaces/inkscape"
   id="svg2"
   version="1.1"
   inkscape:version="0.91 r13725"
   xml:space="preserve"
   width="425.80606"
   height="810"
   viewBox="0 0 425.80607 810"
   sodipodi:docname="publicdomainq-business-man-apology.svg"
   inkscape:export-filename="/media/sdb1/_GRAFIKA/Publicdomainq/lidi/publicdomainq-business-man-apology.png"
   inkscape:export-xdpi="88.984169"
   inkscape:export-ydpi="88.984169"><title
     id="title7771">Business man - apology</title><metadata
     id="metadata8"><rdf:RDF><cc:Work
         rdf:about=""><dc:format>image/svg+xml</dc:format><dc:type
           rdf:resource="http://purl.org/dc/dcmitype/StillImage" /><dc:title>Business man - apology</dc:title><cc:license
           rdf:resource="http://creativecommons.org/publicdomain/zero/1.0/" /><dc:subject><rdf:Bag><rdf:li>man</rdf:li><rdf:li>male</rdf:li><rdf:li>work</rdf:li><rdf:li>office</rdf:li><rdf:li>apology</rdf:li><rdf:li>sorry</rdf:li><rdf:li>fault</rdf:li><rdf:li>suit</rdf:li><rdf:li>tie</rdf:li><rdf:li>publicdomainq.net</rdf:li></rdf:Bag></dc:subject><dc:description>This image was adapted from a picture posted to publicdomainq.net. All of the images on these sites are in the public domain i.e. CC0. This site is only in Japanese but can be easily navigated with Google Translate.</dc:description></cc:Work><cc:License
         rdf:about="http://creativecommons.org/publicdomain/zero/1.0/"><cc:permits
           rdf:resource="http://creativecommons.org/ns#Reproduction" /><cc:permits
           rdf:resource="http://creativecommons.org/ns#Distribution" /><cc:permits
           rdf:resource="http://creativecommons.org/ns#DerivativeWorks" /></cc:License></rdf:RDF></metadata><defs
     id="defs6" /><sodipodi:namedview
     pagecolor="#ffffff"
     bordercolor="#666666"
     borderopacity="1"
     objecttolerance="10"
     gridtolerance="10"
     guidetolerance="10"
     inkscape:pageopacity="0"
     inkscape:pageshadow="2"
     inkscape:window-width="1920"
     inkscape:window-height="1125"
     id="namedview4"
     showgrid="false"
     inkscape:zoom="1.0697483"
     inkscape:cx="54.728043"
     inkscape:cy="437.20322"
     inkscape:window-x="0"
     inkscape:window-y="0"
     inkscape:window-maximized="1"
     inkscape:current-layer="svg2"
     fit-margin-top="5"
     fit-margin-left="5"
     fit-margin-bottom="5"
     fit-margin-right="5" /><g
     transform="matrix(0.52260003,0,0,-0.52260003,5.0102372,804.94886)"
     id="g7566"><path
       inkscape:connector-curvature="0"
       id="path7568"
       style="fill:#4f4c4c;fill-opacity:1;fill-rule:nonzero;stroke:none"
       d="m 53.3984,474.691 c 16.8008,15.469 49.3006,32.457 85.6216,46.571 30.89,12.011 117.996,34.336 117.996,34.336 43.683,49.101 81.183,50.379 81.183,50.379 l 123.035,3.878 c 0,0 39.473,-7.324 78.528,-54.257 0,0 133.191,-37.657 178.836,-59.2 C 743.793,484.5 769.195,445.238 779.762,386.16 783.09,315.332 722.191,7 722.191,7 L 80.6016,7 c 0,0 -54.1797,251.25 -67.1993,319.18 9.6016,83.629 20.7969,131.211 39.9961,148.511" /><path
       inkscape:connector-curvature="0"
       id="path7570"
       style="fill:#7b7979;fill-opacity:1;fill-rule:nonzero;stroke:none"
       d="m 21.4219,303.25 c 3.125,75 17.7109,124.539 35,143.75 22.5,25 42.4179,27.09 79.4451,39.219 36.25,11.883 89.949,25.082 89.949,25.082 48.75,45 112.372,70.078 112.372,70.078 l 118.125,3.75 c 0,0 67.277,-27.102 108.527,-72.098 0,0 95.137,-19.019 144.433,-51.031 37.625,-24.418 66.856,-109.641 67.149,-117.5 0.555,17.391 1.992,32.199 0,43.332 -10.567,59.078 -33.137,92.277 -58.332,104.168 -45.645,21.551 -178.328,63.598 -178.328,63.598 -39.055,46.933 -78.528,54.257 -78.528,54.257 l -123.035,-3.878 c 0,0 -37.5,-1.278 -81.183,-50.379 0,0 -86.797,-27.086 -117.692,-39.098 C 103.008,502.371 70.1992,490.16 53.3984,474.691 43.9609,466.18 31.5,448.332 25.1719,424.5 c -6.5508,-24.629 -6.25,-55 -6.875,-96.25 -0.125,-8.102 3.0429,-27.012 3.125,-25" /><path
       inkscape:connector-curvature="0"
       id="path7572"
       style="fill:#3d3a3b;fill-opacity:1;fill-rule:nonzero;stroke:none"
       d="M 415.063,87 C 248.051,87 113.535,149.398 30.1719,245.75 46.3867,134.332 80.6016,7 80.6016,7 L 722.191,7 c 0,0 20.567,84.0313 39.231,198.172 C 675.27,132.781 556.285,87 415.063,87" /><path
       inkscape:connector-curvature="0"
       id="path7574"
       style="fill:#ffffff;fill-opacity:1;fill-rule:nonzero;stroke:none"
       d="m 455.766,581.398 c 0,0 40.527,-20.183 40.312,-133.367 C 495.863,337.609 399.313,74.2891 399.313,74.2891 l -1.856,0 c 0,0 -96.543,263.3199 -96.758,373.7419 C 300.473,561.215 341,581.398 341,581.398 l 111.211,-0.937" /><path
       inkscape:connector-curvature="0"
       id="path7576"
       style="fill:#cbd0cf;fill-opacity:1;fill-rule:nonzero;stroke:none"
       d="m 311.801,434.441 c 0,0 45.879,43.719 66.23,44.868 20.352,1.16 47.207,0.589 57.864,-7.52 10.652,-8.109 45.593,-37.348 45.593,-37.348 0,0 -67.371,27.5 -169.687,0" /><path
       inkscape:connector-curvature="0"
       id="path7578"
       style="fill:#36ab9c;fill-opacity:1;fill-rule:nonzero;stroke:none"
       d="m 438.922,203.102 c -7.551,50.218 -26.848,222.48 -26.848,222.48 l 21.563,46.207 -36.18,17.332 -34.328,-17.332 21.562,-46.207 c 0,0 -19.296,-172.262 -26.843,-222.48 L 399.313,69.9609 438.922,203.102" /><path
       inkscape:connector-curvature="0"
       id="path7580"
       style="fill:#fcd0b4;fill-opacity:1;fill-rule:nonzero;stroke:none"
       d="m 449.398,604.523 4.805,-41.074 C 450.297,525.891 397.457,499.93 397.457,499.93 363.012,510.75 341,563.449 341,563.449 l 4.805,41.074 1.699,17.852 58.789,7.715 43.105,-25.567" /><path
       inkscape:connector-curvature="0"
       id="path7582"
       style="fill:#e59686;fill-opacity:1;fill-rule:nonzero;stroke:none"
       d="m 348.715,584.473 -3.817,-34.188 13.797,-21.625 c 30,-8.648 80.012,5.922 97.207,33.52 l -3.32,22.293 -103.867,0" /><path
       inkscape:connector-curvature="0"
       id="path7584"
       style="fill:none;stroke:#231f20;stroke-width:12;stroke-linecap:round;stroke-linejoin:round;stroke-miterlimit:10;stroke-dasharray:none;stroke-opacity:1"
       d="M 345.805,604.523 341,563.449 c 0,0 22.012,-52.699 56.457,-63.519 0,0 52.84,25.961 56.746,63.519 l -4.805,41.074" /><path
       inkscape:connector-curvature="0"
       id="path7586"
       style="fill:none;stroke:#231f20;stroke-width:14;stroke-linecap:round;stroke-linejoin:round;stroke-miterlimit:10;stroke-dasharray:none;stroke-opacity:1"
       d="m 339.801,598.684 c 0,0 -33.606,8.886 -83.164,-43.086 0,0 -123.602,-37.657 -169.2386,-59.2 C 62.1992,484.5 30.5469,463 21.8281,403.621 12.3047,338.801 35.375,213.289 79,7" /><path
       inkscape:connector-curvature="0"
       id="path7588"
       style="fill:none;stroke:#231f20;stroke-width:14;stroke-linecap:round;stroke-linejoin:round;stroke-miterlimit:10;stroke-dasharray:none;stroke-opacity:1"
       d="M 120.199,377.371 245.004,7" /><path
       inkscape:connector-curvature="0"
       id="path7590"
       style="fill:none;stroke:#231f20;stroke-width:12;stroke-linecap:round;stroke-linejoin:round;stroke-miterlimit:10;stroke-dasharray:none;stroke-opacity:1"
       d="m 397.457,70.6914 c 0,0 -96.543,266.9176 -96.758,377.3396 C 300.473,561.215 341,581.398 341,581.398" /><path
       inkscape:connector-curvature="0"
       id="path7592"
       style="fill:none;stroke:#231f20;stroke-width:12;stroke-linecap:round;stroke-linejoin:round;stroke-miterlimit:10;stroke-dasharray:none;stroke-opacity:1"
       d="m 455.766,581.398 c 0,0 40.527,-20.183 40.312,-133.367" /><path
       inkscape:connector-curvature="0"
       id="path7594"
       style="fill:none;stroke:#231f20;stroke-width:12;stroke-linecap:round;stroke-linejoin:round;stroke-miterlimit:10;stroke-dasharray:none;stroke-opacity:1"
       d="M 496.078,448.031 C 495.863,337.609 381.391,17.3398 381.391,17.3398" /><path
       inkscape:connector-curvature="0"
       id="path7596"
       style="fill:none;stroke:#231f20;stroke-width:12;stroke-linecap:round;stroke-linejoin:round;stroke-miterlimit:10;stroke-dasharray:none;stroke-opacity:1"
       d="m 494.742,425.582 c 0,0 -45.246,44.078 -96.359,63.539 -51.113,-19.461 -96.348,-63.539 -96.348,-63.539" /><path
       inkscape:connector-curvature="0"
       id="path7598"
       style="fill:none;stroke:#231f20;stroke-width:12;stroke-linecap:round;stroke-linejoin:round;stroke-miterlimit:10;stroke-dasharray:none;stroke-opacity:1"
       d="m 363.129,471.789 21.562,-46.207 c 0,0 -19.296,-168.23 -26.843,-218.461" /><path
       inkscape:connector-curvature="0"
       id="path7600"
       style="fill:none;stroke:#231f20;stroke-width:12;stroke-linecap:round;stroke-linejoin:round;stroke-miterlimit:10;stroke-dasharray:none;stroke-opacity:1"
       d="m 433.637,471.789 -21.563,-46.207 c 0,0 19.297,-168.23 26.848,-218.461" /><path
       inkscape:connector-curvature="0"
       id="path7602"
       style="fill:none;stroke:#231f20;stroke-width:10;stroke-linecap:round;stroke-linejoin:round;stroke-miterlimit:10;stroke-dasharray:none;stroke-opacity:1"
       d="M 258.207,553.508 195,480.461 257.387,454.5 186.195,399.719 389.398,47.8594" /><path
       inkscape:connector-curvature="0"
       id="path7604"
       style="fill:none;stroke:#231f20;stroke-width:14;stroke-linecap:round;stroke-linejoin:round;stroke-miterlimit:10;stroke-dasharray:none;stroke-opacity:1"
       d="m 456.605,598.684 c 0,0 33.594,8.886 83.165,-43.086 0,0 123.593,-37.657 169.238,-59.2 C 734.203,484.5 765.902,460.18 773.922,397.832 783.422,323.961 758.09,199.5 720.59,7" /><path
       inkscape:connector-curvature="0"
       id="path7606"
       style="fill:none;stroke:#231f20;stroke-width:14;stroke-linecap:round;stroke-linejoin:round;stroke-miterlimit:10;stroke-dasharray:none;stroke-opacity:1"
       d="M 676.207,377.371 551.41,7" /><path
       inkscape:connector-curvature="0"
       id="path7608"
       style="fill:none;stroke:#231f20;stroke-width:10;stroke-linecap:round;stroke-linejoin:round;stroke-miterlimit:10;stroke-dasharray:none;stroke-opacity:1"
       d="M 538.207,553.508 601.402,480.461 539.008,454.5 610.219,399.719 408.598,28.6602" /><path
       inkscape:connector-curvature="0"
       id="path7610"
       style="fill:#5c3d33;fill-opacity:1;fill-rule:nonzero;stroke:none"
       d="m 49.0469,969.461 c 0,0 -31.8242,242.879 16.5937,345.759 36.9534,78.53 99.0434,156.32 249.0504,193.22 161.914,39.81 267.911,-3.97 292.375,-65.76 0,0 99.18,-21.16 137.227,-121.91 51.062,-135.18 0.859,-345.313 0.859,-345.313 l -87.207,-65.887 -492.062,0 -116.8361,59.891" /><path
       inkscape:connector-curvature="0"
       id="path7612"
       style="fill:#cdb099;fill-opacity:1;fill-rule:nonzero;stroke:none"
       d="m 66.1563,1265.19 c 36.9647,78.53 99.0427,156.33 249.0627,193.22 161.906,39.81 267.91,-3.96 292.375,-65.76 0,0 91.98,-13.85 130.027,-114.59 13.77,-36.45 20.188,-77.1 22.258,-117.05 1.562,54.76 -3.176,115.18 -22.774,167.08 -38.058,100.74 -130.039,114.59 -130.039,114.59 -24.464,61.79 -130.461,105.57 -292.375,65.76 C 164.684,1471.54 102.594,1393.75 65.6406,1315.22 43.375,1267.9 39.75,1197.41 42.3281,1135.05 c 1.125,47.62 7.3946,95.21 23.8282,130.14" /><path
       inkscape:connector-curvature="0"
       id="path7614"
       style="fill:#cdb099;fill-opacity:1;fill-rule:nonzero;stroke:none"
       d="m 140.922,1369.36 c 0,0 96.719,-68.68 214.973,-72.88 0,0 43.125,-15.35 -43.145,-19.66 -86.281,-4.33 -177.297,6.02 -232.0039,34.53 l 60.1759,58.01" /><path
       inkscape:connector-curvature="0"
       id="path7616"
       style="fill:#fcd0b4;fill-opacity:1;fill-rule:nonzero;stroke:none"
       d="m 96.5781,956.188 c 0,0 -61.5234,43.972 -84.6406,-24.981 C -14.6133,851.98 71.9961,760.656 126.941,755.09" /><path
       inkscape:connector-curvature="0"
       id="path7618"
       style="fill:none;stroke:#231f20;stroke-width:14;stroke-linecap:round;stroke-linejoin:round;stroke-miterlimit:10;stroke-dasharray:none;stroke-opacity:1"
       d="m 96.5781,956.188 c 0,0 -61.5234,43.972 -84.6406,-24.981 C -14.6133,851.98 71.9961,760.656 126.941,755.09" /><path
       inkscape:connector-curvature="0"
       id="path7620"
       style="fill:#e59686;fill-opacity:1;fill-rule:nonzero;stroke:none"
       d="m 45.8203,855.992 c 12.6485,-25.64 36.6328,-41.043 53.5508,-34.414 16.9379,6.641 20.3869,32.801 7.7309,58.453 -12.6489,25.645 -36.6332,41.055 -53.5512,34.414 -16.9336,-6.632 -20.3789,-32.789 -7.7305,-58.453" /><path
       inkscape:connector-curvature="0"
       id="path7622"
       style="fill:none;stroke:#231f20;stroke-width:14;stroke-linecap:round;stroke-linejoin:round;stroke-miterlimit:10;stroke-dasharray:none;stroke-opacity:1"
       d="m 44.8281,923.359 c 0,0 32.6914,13.661 57.9879,-39.386" /><path
       inkscape:connector-curvature="0"
       id="path7624"
       style="fill:#fcd0b4;fill-opacity:1;fill-rule:nonzero;stroke:none"
       d="m 699.039,955.898 c 0,0 61.524,43.977 84.629,-24.976 C 810.23,851.691 723.629,760.367 668.676,754.801" /><path
       inkscape:connector-curvature="0"
       id="path7626"
       style="fill:none;stroke:#231f20;stroke-width:14;stroke-linecap:round;stroke-linejoin:round;stroke-miterlimit:10;stroke-dasharray:none;stroke-opacity:1"
       d="m 699.039,955.898 c 0,0 61.524,43.977 84.629,-24.976 C 810.23,851.691 723.629,760.367 668.676,754.801" /><path
       inkscape:connector-curvature="0"
       id="path7628"
       style="fill:#e59686;fill-opacity:1;fill-rule:nonzero;stroke:none"
       d="m 749.789,855.707 c -12.644,-25.641 -36.629,-41.047 -53.543,-34.414 -16.945,6.637 -20.391,32.797 -7.726,58.449 12.648,25.645 36.621,41.055 53.546,34.414 16.934,-6.629 20.372,-32.789 7.723,-58.449" /><path
       inkscape:connector-curvature="0"
       id="path7630"
       style="fill:none;stroke:#231f20;stroke-width:14;stroke-linecap:round;stroke-linejoin:round;stroke-miterlimit:10;stroke-dasharray:none;stroke-opacity:1"
       d="m 750.777,920.969 c 0,0 -32.675,13.461 -57.988,-38.797" /><path
       inkscape:connector-curvature="0"
       id="path7632"
       style="fill:#fcd0b4;fill-opacity:1;fill-rule:nonzero;stroke:none"
       d="M 708.336,1006.14 C 705.609,936.625 692.711,807.297 651.402,713.027 610.973,620.754 521.324,579.141 427.34,555.012 c -30.469,-6.367 -59.231,0 -59.231,0 -93.984,24.129 -190.351,69.121 -224.062,158.015 -36.504,96.25 -54.2072,223.598 -56.9337,293.113 9.9922,60.57 40.3517,85.7 68.8277,114.97 0,0 46.036,30.87 75.723,35.94 42.539,7.26 129.172,38.41 129.172,38.41 l -23.82,-45.71 -38.633,-36.69 c 0,0 60.637,5.38 114.59,31.54 72.48,35.13 144.902,95.15 156.328,110.33 0,0 -1.961,-117.42 102.004,-195.58 0,0 20.625,-13.24 37.019,-38.28 l 0.012,-14.93" /><path
       inkscape:connector-curvature="0"
       id="path7634"
       style="fill:none;stroke:#231f20;stroke-width:14;stroke-linecap:round;stroke-linejoin:round;stroke-miterlimit:10;stroke-dasharray:none;stroke-opacity:1"
       d="m 366.586,628.313 c 0,0 10.684,-2.989 30.148,-2.989 19.481,0 30.157,2.989 30.157,2.989" /><path
       inkscape:connector-curvature="0"
       id="path7636"
       style="fill:none;stroke:#231f20;stroke-width:12;stroke-linecap:round;stroke-linejoin:round;stroke-miterlimit:10;stroke-dasharray:none;stroke-opacity:1"
       d="m 373.688,837.02 c 0,0 7.117,-24.579 2.371,-49.895" /><path
       inkscape:connector-curvature="0"
       id="path7638"
       style="fill:#e59686;fill-opacity:1;fill-rule:nonzero;stroke:none"
       d="m 403.09,728.664 c -2.742,-5.918 -12.723,-7.109 -22.274,-2.695 -9.562,4.433 -15.097,12.832 -12.355,18.734 2.746,5.93 12.715,7.129 22.277,2.695 9.551,-4.421 15.098,-12.816 12.352,-18.734" /><path
       inkscape:connector-curvature="0"
       id="path7640"
       style="fill:none;stroke:#231f20;stroke-width:12;stroke-linecap:round;stroke-linejoin:round;stroke-miterlimit:10;stroke-dasharray:none;stroke-opacity:1"
       d="m 388.422,801.121 c 0,0 -28.738,-32.621 -29.461,-44.375 -0.715,-11.726 23.621,-31.305 23.621,-31.305" /><path
       inkscape:connector-curvature="0"
       id="path7642"
       style="fill:#f78da4;fill-opacity:1;fill-rule:nonzero;stroke:none"
       d="m 245.32,789.813 c 0,-15.188 -24.265,-27.5 -54.207,-27.5 -29.929,0 -54.218,12.312 -54.218,27.5 0,15.195 24.289,27.48 54.218,27.48 29.942,0 54.207,-12.285 54.207,-27.48" /><path
       inkscape:connector-curvature="0"
       id="path7644"
       style="fill:#f78da4;fill-opacity:1;fill-rule:nonzero;stroke:none"
       d="m 555.16,795.27 c 0,-15.184 24.27,-27.5 54.199,-27.5 29.942,0 54.231,12.316 54.231,27.5 0,15.195 -24.289,27.48 -54.231,27.48 -29.929,0 -54.199,-12.285 -54.199,-27.48" /><path
       inkscape:connector-curvature="0"
       id="path7646"
       style="fill:#231f20;fill-opacity:1;fill-rule:nonzero;stroke:none"
       d="m 340.875,1022.5 c 1.914,-1.16 0.059,-8 -6.738,-16.15 -6.696,-8.155 -18.254,-16.862 -31.61,-23.131 -26.711,-12.918 -59.289,-16.055 -71.39,-14.356 -11.543,0.918 -24.989,3.535 -34.727,9.496 -4.824,2.918 -8.597,6.653 -10.226,10.243 -1.676,3.613 -1.121,6.64 1.254,8.41 5.011,3.368 9.667,1.363 17.402,-0.883 7.621,-2.422 18.437,-5.258 28.058,-6.004 8.903,-1.461 38.219,0.59 62.848,9.406 12.328,4.249 23.242,10.039 30.848,15.109 7.64,4.99 12.258,9.16 14.281,7.86" /><path
       inkscape:connector-curvature="0"
       id="path7648"
       style="fill:none;stroke:#231f20;stroke-width:14;stroke-linecap:round;stroke-linejoin:round;stroke-miterlimit:10;stroke-dasharray:none;stroke-opacity:1"
       d="m 708.336,1006.14 c -2.668,37.39 -27.441,46.87 -45.481,61.66 -100.417,82.41 -93.554,187.13 -93.554,187.13 0,0 -163.836,-154.82 -275.828,-138.01 43.437,24.67 58.828,55.47 71.082,79.97 0,0 -86.766,-39.42 -153.035,-49.37 C 149.691,1138.23 96,1092.23 87.1133,1006.14 89.8398,936.625 107.543,809.277 144.047,713.027 177.758,624.133 306.449,555.012 397.73,555.012 c 86.258,0 213.243,65.742 253.672,158.015 41.309,94.27 54.207,223.598 56.934,293.113" /><path
       inkscape:connector-curvature="0"
       id="path7650"
       style="fill:none;stroke:#231f20;stroke-width:14;stroke-linecap:round;stroke-linejoin:round;stroke-miterlimit:10;stroke-dasharray:none;stroke-opacity:1"
       d="m 325.688,873.223 c -4.188,-15.543 -28.016,-33.719 -58.915,-37.41 -52.703,-6.293 -72.148,34.5 -72.148,34.5" /><path
       inkscape:connector-curvature="0"
       id="path7652"
       style="fill:#231f20;fill-opacity:1;fill-rule:nonzero;stroke:none"
       d="m 455.883,1022.5 c 2.031,1.3 6.64,-2.86 14.289,-7.86 7.598,-5.06 18.516,-10.86 30.84,-15.101 24.629,-8.82 53.945,-10.875 62.851,-9.414 9.617,0.746 20.43,3.59 28.055,6.012 7.734,2.246 12.383,4.253 17.402,0.875 2.375,-1.77 2.93,-4.793 1.25,-8.407 -1.629,-3.589 -5.398,-7.328 -10.222,-10.238 -9.739,-5.965 -23.184,-8.582 -34.727,-9.5 -12.101,-1.703 -44.68,1.434 -71.398,14.356 -13.348,6.265 -24.903,14.972 -31.602,23.127 -6.797,8.15 -8.652,14.99 -6.738,16.15" /><path
       inkscape:connector-curvature="0"
       id="path7654"
       style="fill:none;stroke:#231f20;stroke-width:14;stroke-linecap:round;stroke-linejoin:round;stroke-miterlimit:10;stroke-dasharray:none;stroke-opacity:1"
       d="m 51.4219,975.336 c 0,0 -41.3594,228.824 7.0586,331.704 36.9648,78.54 106.2035,164.5 256.2105,201.4 161.914,39.81 267.911,-3.97 292.375,-65.76 0,0 100.899,-21.16 138.946,-121.91 51.062,-135.18 -4.59,-347.934 -4.59,-347.934" /><path
       inkscape:connector-curvature="0"
       id="path7656"
       style="fill:none;stroke:#231f20;stroke-width:10;stroke-linecap:round;stroke-linejoin:round;stroke-miterlimit:10;stroke-dasharray:none;stroke-opacity:1"
       d="m 95.3945,351.012 c 0,0 36.8515,-68.641 62.6095,-90.102" /><path
       inkscape:connector-curvature="0"
       id="path7658"
       style="fill:none;stroke:#231f20;stroke-width:10;stroke-linecap:round;stroke-linejoin:round;stroke-miterlimit:10;stroke-dasharray:none;stroke-opacity:1"
       d="m 704.203,354.199 c 0,0 -35.293,-56.808 -63.914,-81.129" /><path
       inkscape:connector-curvature="0"
       id="path7660"
       style="fill:none;stroke:#231f20;stroke-width:10;stroke-linecap:round;stroke-linejoin:round;stroke-miterlimit:10;stroke-dasharray:none;stroke-opacity:1"
       d="m 386.84,426.16 c 0,0 14.219,6.738 25.234,-0.578" /><path
       inkscape:connector-curvature="0"
       id="path7662"
       style="fill:none;stroke:#231f20;stroke-width:10;stroke-linecap:round;stroke-linejoin:round;stroke-miterlimit:10;stroke-dasharray:none;stroke-opacity:1"
       d="m 188.09,842.004 19.406,9.695" /><path
       inkscape:connector-curvature="0"
       id="path7664"
       style="fill:none;stroke:#231f20;stroke-width:14;stroke-linecap:round;stroke-linejoin:round;stroke-miterlimit:10;stroke-dasharray:none;stroke-opacity:1"
       d="m 470.492,873.223 c 4.192,-15.543 28.02,-33.719 58.918,-37.41 52.695,-6.293 72.149,34.5 72.149,34.5" /><path
       inkscape:connector-curvature="0"
       id="path7666"
       style="fill:none;stroke:#231f20;stroke-width:10;stroke-linecap:round;stroke-linejoin:round;stroke-miterlimit:10;stroke-dasharray:none;stroke-opacity:1"
       d="m 608.09,842.004 -19.402,9.695" /></g></svg>